<?xml version="1.0" encoding="UTF-8"?>
<svg version="1.1" xmlns="http://www.w3.org/2000/svg" viewBox="1448 0 724 724" width="724" height="724">
<path d="M0 0 C1.28947963 -0.00525911 1.28947963 -0.00525911 2.60500935 -0.01062447 C5.481343 -0.0199174 8.35747324 -0.01502057 11.23381519 -0.01015663 C13.31860529 -0.01389395 15.40339398 -0.0184958 17.48818046 -0.02388728 C23.2142201 -0.0361226 28.94020133 -0.03585617 34.66625106 -0.03349853 C40.84297675 -0.03309049 47.01968369 -0.04412822 53.19640064 -0.05361366 C65.29691206 -0.07022768 77.39739868 -0.07574932 89.49791851 -0.07683842 C99.33409963 -0.07775793 109.17027444 -0.08187682 119.00645351 -0.08823967 C121.83903894 -0.09003479 124.67162438 -0.09181442 127.50420982 -0.09358943 C128.20842589 -0.09403152 128.91264196 -0.09447362 129.63819791 -0.09492911 C149.44401681 -0.10723587 169.24983353 -0.11513041 189.05565643 -0.11424255 C190.17551342 -0.11419582 190.17551342 -0.11419582 191.31799378 -0.11414814 C195.10181759 -0.11398193 198.8856414 -0.11378384 202.66946521 -0.11357872 C203.79665999 -0.11351889 203.79665999 -0.11351889 204.94662638 -0.11345784 C206.46626819 -0.11337697 207.98590999 -0.11329337 209.5055518 -0.11320706 C233.1443117 -0.11198178 256.78301422 -0.1269912 280.4217577 -0.15435219 C306.98820401 -0.18508931 333.55461262 -0.20228369 360.12107784 -0.20042574 C362.95523504 -0.20027649 365.78939225 -0.20017907 368.62354946 -0.20011711 C369.3213751 -0.2000938 370.01920074 -0.20007049 370.73817262 -0.20004648 C381.95641333 -0.19998499 393.17460413 -0.21274378 404.39283001 -0.22998164 C415.67258761 -0.24695525 426.95227323 -0.24855602 438.23204293 -0.235763 C444.33995359 -0.22923193 450.44768377 -0.22912149 456.55557728 -0.2464695 C462.15111091 -0.26219865 467.74632094 -0.2593378 473.34184668 -0.24190123 C475.36201535 -0.23883104 477.38220817 -0.24246441 479.40234836 -0.25362138 C496.04232766 -0.33940755 510.30759114 1.38041694 523.2120409 13.13617516 C529.18756853 19.51092984 534.26463775 28.01421067 534.28376198 36.90887356 C534.28821982 37.87009689 534.29267767 38.83132023 534.2972706 39.82167155 C534.29699405 41.40918456 534.29699405 41.40918456 534.29671192 43.02876854 C534.30038861 44.15133661 534.3040653 45.27390468 534.3078534 46.43048996 C534.31891309 50.21202826 534.32273798 53.9935391 534.32654285 57.77509117 C534.33227271 60.47848815 534.33943956 63.18188099 534.34645557 65.88527489 C534.36622065 74.01317213 534.37628711 82.14107062 534.38518336 90.2689859 C534.38956696 94.09757452 534.39493366 97.92616177 534.40017223 101.7547493 C534.417186 114.48427512 534.43167916 127.21380008 534.43892097 139.94333553 C534.44083084 143.24695461 534.44275118 146.55057368 534.44470692 149.85419273 C534.44519066 150.6752828 534.4456744 151.49637287 534.4461728 152.34234446 C534.45446926 165.63708613 534.47979901 178.93173772 534.51228759 192.22644008 C534.54537922 205.87939498 534.56337171 219.53230413 534.56656522 233.18529934 C534.56872857 240.84945284 534.57745141 248.51347504 534.60302639 256.17758942 C534.62476233 262.70632235 534.63276972 269.23489209 534.62305961 275.7636571 C534.61852285 279.09263306 534.62255736 282.42100031 534.63982105 285.7499752 C534.6575214 289.36589421 534.65044165 292.980964 534.63728809 296.59688377 C534.65374196 298.16097421 534.65374196 298.16097421 534.67052823 299.75666243 C534.56902463 311.34292776 530.18261512 320.01644276 522.1495409 328.25726891 C518.98878575 330.95837175 515.80093239 333.26829956 512.1495409 335.25726891 C511.57460404 335.59065378 510.99966717 335.92403865 510.40730798 336.26752609 C501.31459592 340.74094333 491.35307316 339.81508293 481.47635365 339.7719326 C479.35199831 339.77726049 477.22764675 339.78432757 475.10330236 339.79297966 C469.27717151 339.81160164 463.45129493 339.80530337 457.62515354 339.79482663 C451.33735663 339.78783341 445.04961189 339.80383353 438.76183033 339.81682396 C427.15948333 339.8372168 415.55723828 339.83928306 403.95488019 339.8316075 C393.23467592 339.82453036 382.51450165 339.8244815 371.79429722 339.83147049 C370.35541695 339.83238183 368.91653668 339.83329259 367.47765642 339.83420278 C365.30929987 339.83558593 363.14094334 339.83697703 360.97258681 339.83838891 C340.81738424 339.85136674 320.6621917 339.8564877 300.50698757 339.84485531 C299.36772219 339.84419835 299.36772219 339.84419835 298.20544135 339.84352812 C292.03797894 339.83992143 285.87051666 339.83608659 279.7030544 339.83223719 C255.64773958 339.8173909 231.59253831 339.82616815 207.53723621 339.85419273 C180.49943174 339.88563186 153.46169449 339.90058706 126.4238714 339.89039272 C123.54005298 339.88935597 120.65623456 339.88836874 117.77241611 339.88740921 C117.0623677 339.88716032 116.35231928 339.88691144 115.62075424 339.88665501 C104.90999531 339.88321732 94.19929579 339.89251202 83.48854923 339.90818024 C71.30529819 339.92596171 59.12223604 339.92559243 46.93898298 339.90282858 C40.72381453 339.8916824 34.50891799 339.88853291 28.29376125 339.90712929 C22.60145085 339.92394199 16.90964935 339.9175715 11.21737187 339.8929125 C9.16094551 339.8880315 7.10447805 339.89153857 5.04808612 339.90439994 C-8.51453453 339.98308679 -19.94051663 338.97172072 -30.9676466 330.13617516 C-41.25630116 319.86886635 -46.12601402 308.30106991 -46.25635141 293.86386025 C-46.25034137 292.88115367 -46.24433132 291.8984471 -46.23813915 290.88596153 C-46.24621746 289.26831203 -46.24621746 289.26831203 -46.25445896 287.61798275 C-46.26865504 284.03945482 -46.26165539 280.46130118 -46.25451183 276.88275719 C-46.26021976 274.30274727 -46.26718565 271.72273988 -46.27530956 269.14273643 C-46.29243305 262.88315384 -46.29335105 256.6236719 -46.28809666 250.36407198 C-46.28404159 245.2719815 -46.28551432 240.17992058 -46.29084492 235.0878315 C-46.29159334 234.36080413 -46.29234176 233.63377676 -46.29311286 232.88471826 C-46.29464447 231.4073689 -46.29618282 229.93001955 -46.29772783 228.4526702 C-46.31142957 214.62418409 -46.30603162 200.79575468 -46.29454262 186.96726988 C-46.284613 174.34184159 -46.29755033 161.71655992 -46.32147681 149.09115423 C-46.34591328 136.09780893 -46.35546451 123.10453178 -46.34882408 110.11116397 C-46.3453419 102.82820933 -46.3474974 95.54536735 -46.36507511 88.26243019 C-46.38140537 81.41193545 -46.37654496 74.56172417 -46.35776997 67.71123695 C-46.35409493 65.2047436 -46.35716065 62.69822937 -46.36765575 60.19175529 C-46.43827418 41.92440739 -46.1922117 26.28282779 -32.97155285 12.26508141 C-23.66982195 3.50830039 -12.57009135 -0.0656502 0 0 Z " fill="#31AA49" transform="translate(143.85045909881592,190.74273109436035)"/>
<path d="M0 0 C0.86217558 -0.00350607 1.72435117 -0.00701215 2.61265329 -0.01062447 C5.50357907 -0.01993317 8.39430318 -0.01501648 11.28523731 -0.01015663 C13.37812664 -0.01389316 15.47101457 -0.01849469 17.56390029 -0.02388728 C23.31693295 -0.03613245 29.06990752 -0.03585501 34.82295024 -0.03349853 C41.02694114 -0.03309074 47.23091332 -0.04412587 53.43489552 -0.05361366 C65.59068844 -0.07023316 77.7464549 -0.07574956 89.90225687 -0.07683842 C99.78280688 -0.07775769 109.66335061 -0.08187531 119.54389858 -0.08823967 C122.38855816 -0.09003478 125.23321775 -0.09181441 128.07787734 -0.09358943 C128.78508224 -0.09403152 129.49228715 -0.09447362 130.2209225 -0.09492911 C150.11283435 -0.10723716 170.00474402 -0.11513028 189.89665985 -0.11424255 C191.02155227 -0.11419582 191.02155227 -0.11419582 192.16916979 -0.11414814 C195.97006548 -0.11398192 199.77096118 -0.11378384 203.57185688 -0.11357872 C204.32671948 -0.11353883 205.08158209 -0.11349894 205.85931931 -0.11345784 C207.3858359 -0.11337697 208.91235249 -0.11329337 210.43886907 -0.11320706 C234.18486824 -0.11198176 257.93081028 -0.12699096 281.6767931 -0.15435219 C308.35968493 -0.18508484 335.04253922 -0.20228395 361.72544986 -0.20042574 C364.57168122 -0.20027648 367.41791258 -0.20017907 370.26414394 -0.20011711 C370.96494981 -0.2000938 371.66575567 -0.20007049 372.38779808 -0.20004648 C383.65743196 -0.19998498 394.92701618 -0.21274768 406.1966353 -0.22998164 C417.52691352 -0.24694976 428.85709946 -0.24856014 440.18739047 -0.235763 C446.3235237 -0.22922904 452.45947726 -0.22913186 458.59559345 -0.2464695 C464.21578655 -0.26218597 469.8356573 -0.25935077 475.45584247 -0.24190123 C477.48611738 -0.23882824 479.51641626 -0.24247497 481.54666289 -0.25362138 C498.26337847 -0.33930102 511.52778826 1.73811127 524.05106068 13.75726891 C529.09490759 19.06965396 533.03626841 24.6045468 533.36356068 32.13226891 C533.32231068 32.83351891 533.28106068 33.53476891 533.23856068 34.25726891 C533.89856068 34.25726891 534.55856068 34.25726891 535.23856068 34.25726891 C535.3531008 68.70416482 535.44115758 103.15101713 535.49388732 137.59806247 C535.50014057 141.6683842 535.50661221 145.73870555 535.51321888 149.80902672 C535.51453043 150.61932621 535.51584198 151.4296257 535.51719328 152.26447973 C535.53892713 165.37054703 535.57833745 178.47650425 535.62432466 191.58250633 C535.67114566 205.03874507 535.69886798 218.49492631 535.70900315 231.95124316 C535.71585065 240.24904153 535.73744748 248.54652869 535.77814301 256.84423122 C535.80465116 262.54066696 535.81254351 268.23694271 535.80606756 273.93343559 C535.80287707 277.21609607 535.8104014 280.49810286 535.83458805 283.78069115 C535.85959311 287.35023553 535.85343715 290.91846582 535.83983326 294.48804283 C535.86167957 296.02311859 535.86167957 296.02311859 535.88396722 297.58920598 C535.75958132 309.72607822 530.51783241 319.60659059 522.23856068 328.25726891 C510.36279331 339.53800827 496.80390282 339.98365064 481.36282825 339.89218712 C479.24086972 339.89795368 477.11891619 339.90589839 474.99697304 339.91582334 C469.1867068 339.93664606 463.37685255 339.92640202 457.56658506 339.91089225 C451.29245117 339.89956406 445.01838736 339.91704877 438.74426746 339.93079185 C427.17079414 339.9517297 415.59748722 339.94993038 404.02400979 339.93623451 C393.33124069 339.9236434 382.63851952 339.92037943 371.94574451 339.92634773 C370.88072071 339.92692062 370.88072071 339.92692062 369.79418126 339.92750508 C366.91180099 339.92906184 364.02942073 339.93065385 361.1470405 339.9323039 C334.12289017 339.9475897 307.09882312 339.93374623 280.07468565 339.90681942 C256.07946135 339.88309238 232.08436975 339.88521557 208.08914661 339.90912437 C181.11358289 339.93591312 154.13809272 339.94650552 127.16251755 339.93106306 C124.28547066 339.92945953 121.40842376 339.92789533 118.53137684 339.92634773 C117.82300457 339.92595235 117.11463231 339.92555696 116.38479421 339.92514959 C105.70025678 339.91946865 95.01577261 339.9261016 84.33124256 339.9387455 C72.1791415 339.95305463 60.02723683 339.9489602 47.87514615 339.92234178 C41.67617008 339.90921036 35.47746313 339.90404016 29.27848911 339.92058754 C23.60105424 339.93551342 17.92413733 339.9272546 12.24674928 339.90069978 C10.19576922 339.8951261 8.14474517 339.89793013 6.09379351 339.91007872 C-10.47378016 340.00066788 -22.08775207 337.34609659 -34.47237682 325.64008141 C-40.73780185 318.99300612 -44.87214798 309.74548793 -44.89845371 300.58470058 C-44.90352826 299.64423667 -44.9086028 298.70377276 -44.91383111 297.73480994 C-44.91432887 296.70477282 -44.91482663 295.6747357 -44.91533947 294.61348534 C-44.91972172 293.51668086 -44.92410398 292.41987637 -44.92861903 291.28983539 C-44.94201192 287.60132518 -44.94818707 283.91283886 -44.95431042 280.22430992 C-44.96221112 277.58474612 -44.97047515 274.94518537 -44.97909069 272.30562401 C-45.00359883 264.37390762 -45.01824106 256.442185 -45.03115076 248.51044241 C-45.03486435 246.26870689 -45.03883746 244.02697198 -45.04290342 241.78523707 C-45.06814551 227.85396966 -45.0901911 213.92270122 -45.10263157 199.99141598 C-45.10556111 196.76533632 -45.10852279 193.53925669 -45.11153698 190.31317711 C-45.11228303 189.51138316 -45.11302908 188.70958922 -45.11379774 187.88349848 C-45.12643944 174.90768282 -45.15964713 161.93200456 -45.20133881 148.95625306 C-45.24382637 135.62304644 -45.2673346 122.28991001 -45.27255213 108.95663589 C-45.27595891 101.47512939 -45.28762684 93.99383745 -45.32065487 86.51239777 C-45.34875076 80.13782815 -45.35961328 73.7635171 -45.34845941 67.38889039 C-45.34329652 64.14051428 -45.34876867 60.89278839 -45.37092495 57.64446831 C-45.4904905 39.09940725 -44.57777813 25.46469221 -31.10909557 11.55023766 C-22.45249797 3.504694 -11.64455901 -0.06034704 0 0 Z " fill="#CF222E" transform="translate(1538.7614393234253,190.74273109436035)"/>
<path d="M0 0 C1.28348553 -0.00352835 1.28348553 -0.00352835 2.59290007 -0.00712797 C5.46763126 -0.01379885 8.34231705 -0.01336032 11.21705532 -0.01294994 C13.29599353 -0.01624975 15.3749311 -0.01997556 17.45386785 -0.02409142 C23.17300951 -0.03410611 28.89214067 -0.03782736 34.61128986 -0.04048073 C40.77713935 -0.0443853 46.94298054 -0.05396348 53.10882473 -0.0626936 C67.29770066 -0.0815188 81.48657465 -0.09171295 95.67545955 -0.10015428 C102.68916948 -0.1043629 109.70287856 -0.10958459 116.71658778 -0.11483881 C140.7317083 -0.13272741 164.74682907 -0.14772294 188.76195526 -0.155159 C190.26919026 -0.15563375 191.77642526 -0.15610964 193.28366026 -0.15658666 C194.03110146 -0.15682303 194.77854266 -0.15705941 195.5486336 -0.15730295 C199.33544129 -0.15850413 203.12224898 -0.15971959 206.90905666 -0.16094494 C208.03630423 -0.16130516 208.03630423 -0.16130516 209.18632447 -0.16167267 C233.54879612 -0.16956467 257.91121907 -0.19299526 282.27366946 -0.22550088 C308.03927578 -0.25981582 333.80485361 -0.27951165 359.57048315 -0.28280324 C362.40017793 -0.28322077 365.22987269 -0.28370033 368.05956745 -0.28422642 C368.75630294 -0.28434961 369.45303843 -0.2844728 370.17088712 -0.28459973 C381.37250479 -0.28692961 392.5740658 -0.30257764 403.77566329 -0.32306826 C415.03997737 -0.34334635 426.3042246 -0.34846132 437.56855977 -0.33929763 C443.66835918 -0.33475108 449.76797496 -0.33666022 455.86774921 -0.35605907 C461.45595528 -0.3736774 467.04384357 -0.37270348 472.63205295 -0.35716178 C474.64959205 -0.35478374 476.66715308 -0.35911938 478.68465865 -0.37099043 C496.47623059 -0.46916044 509.84403367 1.86919267 523.22375393 14.50922108 C526.97123681 18.38727827 529.44970913 22.13380636 531.41125393 27.13422108 C531.75155469 27.89837367 532.09185544 28.66252627 532.44246835 29.449835 C533.42804454 32.18074579 533.66270243 34.12119881 533.66572952 37.00627327 C533.67156172 37.96574531 533.67739391 38.92521735 533.68340284 39.9137643 C533.67962351 40.95986297 533.67584419 42.00596163 533.67195034 43.08376026 C533.67577589 44.20128121 533.67960143 45.31880215 533.68354291 46.47018737 C533.69387872 50.22258536 533.68987957 53.9748305 533.68591213 57.72723866 C533.69025832 60.41447426 533.69537655 63.10169858 533.7013998 65.78892994 C533.71415187 72.33553424 533.71593981 78.88209754 533.71359954 85.42871217 C533.71181654 90.75080242 533.71356563 96.07288022 533.71782398 101.39496899 C533.71841917 102.15243073 533.71901436 102.90989248 533.71962759 103.69030761 C533.72083934 105.2291121 533.72205348 106.76791658 533.72326996 108.30672105 C533.73414776 122.73968277 533.73198206 137.17262113 533.72588512 151.60558417 C533.72071752 164.80453827 533.73196681 178.00341854 533.75098334 191.20235804 C533.77036413 204.75819072 533.7786172 218.31398846 533.77486008 231.86983508 C533.77294818 239.47908945 533.77543442 247.088281 533.78957462 254.69752407 C533.80149259 261.17648235 533.8028888 267.65533915 533.79078446 274.13429884 C533.78489821 277.43861085 533.78541867 280.74269911 533.79578686 284.04700565 C533.8062268 287.63275298 533.79817501 291.21800164 533.78547573 294.80373096 C533.79285002 295.84313747 533.8002243 296.88254397 533.80782205 297.95344764 C533.71947112 309.81231495 528.72394462 319.79765288 520.66125393 328.44672108 C512.60968861 336.08182612 502.59963936 339.4472494 491.69198227 339.39148998 C490.38733746 339.39674909 490.38733746 339.39674909 489.05633619 339.40211445 C486.13358844 339.41143935 483.21103945 339.40650228 480.28828335 339.40164661 C478.17492039 339.40538233 476.06155882 339.40998353 473.94819945 339.41537726 C468.13396915 339.42763254 462.31979627 339.42734381 456.50555599 339.42498851 C450.23748978 339.42458098 443.96944214 339.43561343 437.70138454 339.44510365 C425.41812012 339.46172876 413.13488188 339.46723979 400.85160849 339.4683284 C390.86805115 339.46924742 380.88450003 339.47336374 370.90094471 339.47972965 C368.02736003 339.48152474 365.15377534 339.48330437 362.28019065 339.48507941 C361.56580828 339.4855215 360.85142591 339.4859636 360.11539559 339.48641909 C340.01950326 339.49872845 319.92361309 339.50662013 299.82771683 339.50573254 C299.06998301 339.50570138 298.3122492 339.50567022 297.53155375 339.50563812 C293.69103652 339.5054719 289.85051929 339.50527382 286.01000205 339.5050687 C285.24726122 339.50502881 284.48452038 339.50498892 283.69866618 339.50494782 C282.15621754 339.50486695 280.61376891 339.50478335 279.07132027 339.50469704 C255.077104 339.50347172 231.08294426 339.51848076 207.08874416 339.54584217 C180.13119372 339.57657012 153.17368043 339.59377421 126.21611136 339.59191573 C123.3409549 339.59176647 120.46579844 339.59166905 117.59064198 339.59160709 C116.88270643 339.59158379 116.17477089 339.59156048 115.44538276 339.59153646 C104.05740785 339.59147494 92.66948206 339.60424173 81.28152176 339.62147162 C69.83351464 339.63843395 58.38560454 339.64005446 46.937587 339.62725298 C40.73677678 339.62071599 34.53614438 339.62063275 28.33535099 339.63795948 C22.65719145 339.65366264 16.97935114 339.65085441 11.30119952 339.63339122 C9.24870541 339.63031527 7.19618764 339.63397602 5.14372144 339.64511137 C-9.9028887 339.7213279 -21.75835399 338.38991933 -33.58874607 328.13422108 C-40.37954651 320.90110797 -45.70111537 312.4966772 -45.72296715 302.37518597 C-45.72742499 301.41545498 -45.73188284 300.45572399 -45.73647577 299.46691024 C-45.7362914 298.41537202 -45.73610704 297.36383381 -45.73591709 296.28043079 C-45.73959378 295.16109185 -45.74327047 294.04175291 -45.74705857 292.88849461 C-45.75810415 289.1238819 -45.76194075 285.35929679 -45.76574802 281.5946703 C-45.77201201 278.90097864 -45.77864595 276.20728994 -45.78566074 273.51360035 C-45.80541204 265.42023307 -45.81548976 257.32686456 -45.82438853 249.2334792 C-45.8287737 245.42033379 -45.83413993 241.60718977 -45.8393774 237.79404545 C-45.8563885 225.1150914 -45.87088206 212.4361382 -45.87812614 199.75717449 C-45.88003598 196.46781761 -45.88195632 193.17846074 -45.88391209 189.88910389 C-45.88439583 189.07156994 -45.88487957 188.25403599 -45.88537797 187.41172828 C-45.893676 174.17201549 -45.91900961 160.93239312 -45.95149276 147.6927198 C-45.98458436 134.09397384 -46.00257681 120.49527379 -46.00577039 106.89648736 C-46.00793356 99.26364765 -46.01665392 91.63093979 -46.04223156 83.99813938 C-46.06396732 77.49687886 -46.07197492 70.99578221 -46.06226478 64.49448948 C-46.05772819 61.17968256 -46.0617618 57.86548695 -46.07902622 54.55068111 C-46.09672742 50.95014116 -46.08964645 47.35045396 -46.07649326 43.74991322 C-46.08746251 42.71175933 -46.09843176 41.67360544 -46.1097334 40.60399234 C-46.01310175 29.62001433 -42.0823094 21.08628159 -34.58874607 13.13422108 C-24.26851764 3.36903014 -14.06393102 -0.0263882 0 0 Z " fill="#F7C216" transform="translate(842.5887460708618,190.86577892303467)"/>
<path d="M0 0 C21.12 0 42.24 0 64 0 C69.85547774 36.30396201 69.85547774 36.30396201 71.94067383 51.75292969 C72.32451926 54.58879892 72.71774967 57.42327922 73.11132812 60.2578125 C73.36252566 62.09888385 73.613199 63.94002682 73.86328125 65.78125 C74.03661736 67.02485291 74.03661736 67.02485291 74.2134552 68.2935791 C74.82865207 72.91010269 75.11316864 77.3425856 75 82 C75.66 82 76.32 82 77 82 C77.02578125 81.1440625 77.0515625 80.288125 77.078125 79.40625 C77.53061227 69.1224483 78.64882324 58.95688559 79.9375 48.75 C80.02286011 48.07026123 80.10822021 47.39052246 80.19616699 46.69018555 C81.32214819 37.76932163 82.61000806 28.8836385 84 20 C84.99 13.4 85.98 6.8 87 0 C108.12 0 129.24 0 151 0 C151 60.72 151 121.44 151 184 C136.81 184 122.62 184 108 184 C107.67 147.37 107.34 110.74 107 73 C105.576875 83.18875 104.15375 93.3775 102.6875 103.875 C102.24494873 107.03175293 101.80239746 110.18850586 101.34643555 113.44091797 C100.98394866 116.04121381 100.62234539 118.64163301 100.26171875 121.2421875 C100.16600775 121.9321368 100.07029675 122.62208611 99.97168541 123.33294296 C98.45789511 134.28142007 97.09961898 145.23835292 95.91593933 156.22824097 C95.80808609 157.21527008 95.70023285 158.20229919 95.58911133 159.21923828 C95.4984993 160.07558868 95.40788727 160.93193909 95.31452942 161.8142395 C95 164 95 164 94 167 C93.54043959 170.45388368 93.13540685 173.90845411 92.75 177.37109375 C92.10351967 182.89648033 92.10351967 182.89648033 91 184 C88.78144736 184.08783542 86.56011504 184.10694609 84.33984375 184.09765625 C83.34314415 184.09553383 83.34314415 184.09553383 82.3263092 184.09336853 C80.19666101 184.08775518 78.06711661 184.07520054 75.9375 184.0625 C74.49674631 184.05748671 73.05599097 184.05292351 71.61523438 184.04882812 C68.07678898 184.03778145 64.53840461 184.02050792 61 184 C60.89977539 183.17089111 60.79955078 182.34178223 60.69628906 181.48754883 C60.30672437 178.29395753 59.91066362 175.10124521 59.51074219 171.90893555 C59.26025462 169.89494984 59.01669759 167.88010583 58.7734375 165.86523438 C57.8184424 158.17487142 56.58514451 150.58779569 55.0859375 142.984375 C52.76543769 131.1934007 51.05656431 119.33373227 49.375 107.4375 C48.92451627 104.27804593 48.47262372 101.11879992 48.0194397 97.95973206 C47.74154492 96.01983869 47.46533003 94.0797035 47.19125366 92.13926697 C46.23178452 85.40241589 45.11960699 78.71764196 44 72 C43.67 108.96 43.34 145.92 43 184 C28.81 184 14.62 184 0 184 C0 123.28 0 62.56 0 0 Z " fill="#000201" transform="translate(225,268)"/>
<path d="M0 0 C21.12 0 42.24 0 64 0 C64.495 5.94 64.495 5.94 65 12 C65.495 13.7325 65.495 13.7325 66 15.5 C67.19417443 19.67961051 67.41880686 23.65727831 67.72265625 27.98046875 C67.96426631 30.6109557 68.3641805 33.05172874 68.9375 35.625 C69.98454755 40.41039511 70.4985301 45.19665945 71 50.0625 C71.63413616 56.18060061 72.52904264 62.01810672 74 68 C74.38830158 70.32980948 74.70083472 72.65653862 75 75 C75.33 75 75.66 75 76 75 C76.42337076 71.93581771 76.84656437 68.87161112 77.26953125 65.80737305 C77.63502389 63.16034522 78.00088248 60.51337036 78.3671875 57.86645508 C79.18941508 51.91926062 80.00855296 45.97186281 80.79296875 40.01953125 C82.57175341 26.60493972 84.77150801 13.37095195 87 0 C107.79 0 128.58 0 150 0 C150 60.72 150 121.44 150 184 C136.14 184 122.28 184 108 184 C107.67 147.04 107.34 110.08 107 72 C106.01 79.26 105.02 86.52 104 94 C103.28571151 99.09055208 102.56825547 104.18044886 101.84375 109.26953125 C101.55538701 111.30399132 101.2674074 113.33850546 100.97942352 115.37301922 C100.29022206 120.24184094 99.60023888 125.11054835 98.90673828 129.97875977 C98.3204117 134.09611873 97.73717953 138.21390745 97.15625 142.33203125 C97.06231964 142.99685642 96.96838928 143.66168159 96.87161255 144.34665298 C95.40346806 154.76799218 94.08411513 165.20122644 92.92541504 175.66157532 C92.81661011 176.61976669 92.70780518 177.57795807 92.59570312 178.56518555 C92.50389771 179.40244675 92.41209229 180.23970795 92.31750488 181.1023407 C92 183 92 183 91 184 C88.78144736 184.08783542 86.56011504 184.10694609 84.33984375 184.09765625 C83.34314415 184.09553383 83.34314415 184.09553383 82.3263092 184.09336853 C80.19666101 184.08775518 78.06711661 184.07520054 75.9375 184.0625 C74.49674631 184.05748671 73.05599097 184.05292351 71.61523438 184.04882812 C68.07678898 184.03778145 64.53840461 184.02050792 61 184 C57.92233374 165.45536469 54.90187975 146.9174058 52.40161133 128.28466797 C51.06904179 118.37624534 49.5737209 108.49814178 48.02734375 98.62109375 C46.65128008 89.75254652 45.33130644 80.87537629 44 72 C43.67 108.96 43.34 145.92 43 184 C28.81 184 14.62 184 0 184 C0 123.28 0 62.56 0 0 Z " fill="#020100" transform="translate(923,268)"/>
<path d="M0 0 C20.79 0 41.58 0 63 0 C65.375 15.875 65.375 15.875 66.11083984 20.81982422 C67.22562945 28.25406135 68.4371099 35.64468292 70 43 C71.43574969 50.39809912 72.36028414 57.81965013 73.125 65.3125 C73.21265625 66.16054199 73.3003125 67.00858398 73.390625 67.88232422 C73.85257748 72.61454309 74.08982536 77.24567179 74 82 C74.66 82 75.32 82 76 82 C75.9788916 80.69353516 75.9577832 79.38707031 75.93603516 78.04101562 C75.93841333 73.40108452 76.37938687 68.93320055 77.0234375 64.34375 C77.12967438 63.55657593 77.23591125 62.76940186 77.34536743 61.95837402 C77.56949956 60.30763217 77.79653203 58.65728169 78.02636719 57.00732422 C78.37400672 54.50714354 78.71114141 52.00571052 79.046875 49.50390625 C79.26760786 47.88793584 79.4889421 46.27204745 79.7109375 44.65625 C79.80998383 43.92160522 79.90903015 43.18696045 80.01107788 42.43005371 C80.64781118 37.9004902 81.54089659 33.48500505 82.56436157 29.02780151 C83.08555182 26.60177503 83.37388611 24.21158116 83.5625 21.73828125 C83.67464844 20.40120117 83.67464844 20.40120117 83.7890625 19.03710938 C83.93058937 17.20905397 84.07120298 15.38092766 84.2109375 13.55273438 C84.28570313 12.66521484 84.36046875 11.77769531 84.4375 10.86328125 C84.49808594 10.07219971 84.55867188 9.28111816 84.62109375 8.46606445 C85 6 85 6 87 0 C107.79 0 128.58 0 150 0 C150 60.72 150 121.44 150 184 C136.14 184 122.28 184 108 184 C107.67 146.38 107.34 108.76 107 70 C103.67294745 93.95477833 100.38850893 117.89838911 97.53515625 141.91210938 C96.4055664 151.32528626 94.97250302 160.65455432 93.375 170 C92.59125 174.62 91.8075 179.24 91 184 C80.77 184 70.54 184 60 184 C59.1646875 177.3484375 59.1646875 177.3484375 58.3125 170.5625 C56.30853583 154.85775805 53.9718339 139.21294762 51.55078125 123.56787109 C48.95066757 106.7247588 46.49751976 89.85825838 44 73 C43.67 109.63 43.34 146.26 43 184 C28.81 184 14.62 184 0 184 C0 123.28 0 62.56 0 0 Z " fill="#030000" transform="translate(1621,268)"/>
<path d="M0 0 C71.69369369 0 71.69369369 0 84 4 C85.30517578 4.39832031 85.30517578 4.39832031 86.63671875 4.8046875 C94.63297734 7.57215219 100.28717815 12.43049757 105.375 19.125 C111.82907535 32.45162797 110.42286881 48.30750425 110.36328125 62.6640625 C110.36276158 65.14879354 110.36328339 67.63352498 110.36479187 70.11825562 C110.36470257 75.30416063 110.35435892 80.48990881 110.33618164 85.67578125 C110.3134726 92.29714827 110.31295946 98.91828711 110.31969929 105.53968239 C110.32305244 110.66315715 110.31638422 115.78658062 110.30657005 120.91004562 C110.30274278 123.35069891 110.30155949 125.79135793 110.3031559 128.2320137 C110.30352991 131.65039048 110.29081373 135.06848272 110.2746582 138.48681641 C110.27713562 139.47831192 110.27961304 140.46980743 110.28216553 141.49134827 C110.1947061 153.18250434 109.00836857 164.7369837 101.31640625 174.03515625 C79.19853703 195.69319451 8.71307736 184 0 184 C0 123.28 0 62.56 0 0 Z " fill="#030200" transform="translate(1090,268)"/>
<path d="M0 0 C85.33170021 0 85.33170021 0 99.31640625 13.28125 C108.78273951 22.94525611 109.14773296 33.69698371 109.16113281 46.61987305 C109.16858017 48.34813576 109.16858017 48.34813576 109.17617798 50.11131287 C109.19074602 53.91145431 109.19759284 57.711554 109.203125 61.51171875 C109.20742505 63.49265591 109.21172565 65.47359306 109.2160995 67.45453006 C109.22788855 72.97330664 109.23543999 78.49207321 109.2388947 84.0108611 C109.24336907 91.11670839 109.26089669 98.22236273 109.2898953 105.3281514 C109.3116082 110.84266342 109.32160409 116.35712154 109.32293582 121.87167579 C109.3239771 125.15509826 109.33121795 128.43829907 109.34775543 131.72168541 C109.36492324 135.39232133 109.36290923 139.06249387 109.35644531 142.7331543 C109.3656601 143.80110229 109.37487488 144.86905029 109.3843689 145.96936035 C109.33096165 155.71338242 108.19852391 165.63685092 101.7265625 173.3203125 C78.62523205 195.79445751 16.38259395 184 0 184 C0 123.28 0 62.56 0 0 Z " fill="#000100" transform="translate(393,268)"/>
<path d="M0 0 C70 0 70 0 80 2 C80.98871094 2.17660156 81.97742187 2.35320312 82.99609375 2.53515625 C91.96949373 4.47341065 98.95215751 9.32943587 103.98828125 17.046875 C108.67893803 26.04756248 109.15480612 33.87222561 109.19287109 43.85766602 C109.20513733 45.64182167 109.20513733 45.64182167 109.21765137 47.46202087 C109.24243273 51.39263585 109.25916785 55.32324312 109.2734375 59.25390625 C109.27880318 60.61381472 109.28418069 61.97372314 109.28956985 63.33363152 C109.31118092 68.99641405 109.32991219 74.65919391 109.34119225 80.32200718 C109.35739904 88.40133227 109.39051685 96.48017413 109.44759309 104.55931717 C109.48647332 110.25980625 109.50584628 115.96016708 109.51111281 121.66078514 C109.51474238 125.05561292 109.52650368 128.44992378 109.55921555 131.8446064 C109.59101888 135.64229613 109.59087999 139.43878301 109.58349609 143.23657227 C109.59990143 144.33989899 109.61630676 145.44322571 109.63320923 146.57998657 C109.55460059 156.5265018 106.89424908 167.20246166 99.796875 174.57421875 C74.28786687 194.81506216 17.22808122 183 0 183 C0 122.61 0 62.22 0 0 Z " fill="#010000" transform="translate(1788,269)"/>
<path d="M0 0 C15.18 0 30.36 0 46 0 C46 19.14 46 38.28 46 58 C49.3 55.69 52.6 53.38 56 51 C66.2255589 46.19521931 76.86785448 45.07825236 87.8125 48.4375 C95.01975873 51.48631049 101.36931239 56.36819641 104.60560608 63.57594299 C106.27045474 68.21783463 106.43040081 72.50079523 106.40405273 77.39428711 C106.41091599 78.29783432 106.41777924 79.20138153 106.42485046 80.13230896 C106.44304288 83.09748372 106.43929181 86.06212555 106.43359375 89.02734375 C106.4381591 91.10185415 106.44346573 93.17636304 106.44947815 95.25086975 C106.45839438 99.59073038 106.45600295 103.93040683 106.44604492 108.27026367 C106.4345561 113.81610948 106.45477334 119.36131846 106.48396206 124.90708065 C106.50235757 129.18892924 106.50202492 133.47062614 106.49632454 137.75250435 C106.49617174 139.7965236 106.50218153 141.8405534 106.51461601 143.88453484 C106.52958789 146.74886261 106.51880358 149.61202561 106.50170898 152.47631836 C106.51137695 153.31036194 106.52104492 154.14440552 106.53100586 155.00372314 C106.4250544 163.53381898 102.90150502 171.77235918 97 178 C90.51486977 182.96929694 84.46485291 185.38004842 76.25 185.3125 C75.5377124 185.30686035 74.8254248 185.3012207 74.09155273 185.29541016 C63.73003061 185.05688851 55.96409958 181.30142185 48.2421875 174.4375 C47 173 47 173 47 171 C46.34 171 45.68 171 45 171 C45.020625 172.051875 45.04125 173.10375 45.0625 174.1875 C45 178 45 178 44 183 C29.48 183 14.96 183 0 183 C0 122.61 0 62.22 0 0 Z " fill="#030000" transform="translate(1913,269)"/>
<path d="M0 0 C14.85 0 29.7 0 45 0 C45 19.47 45 38.94 45 59 C45.66 59 46.32 59 47 59 C47 58.34 47 57.68 47 57 C57.66080107 48.73040665 67.56031952 45.66503174 81 47 C89.66872976 48.95709843 96.8455397 53.01541856 102.375 60 C105.64342047 66.03400703 106.29802647 71.14126198 106.29052734 77.86010742 C106.29724457 78.73088928 106.30396179 79.60167114 106.31088257 80.49884033 C106.32982537 83.36777512 106.33378529 86.23647537 106.3359375 89.10546875 C106.34236941 91.11078485 106.34909806 93.11610002 106.35610962 95.12141418 C106.36807411 99.3235593 106.37179143 103.52562226 106.37060547 107.7277832 C106.37040265 113.08962411 106.39767004 118.45093278 106.43214989 123.81264782 C106.4544867 127.95559566 106.45844089 132.09841697 106.45738602 136.24141884 C106.4597331 138.21680848 106.46850587 140.19220209 106.48405075 142.16753197 C106.58043917 155.68441122 106.4320657 167.77269298 96.44921875 178.05078125 C88.80266423 184.13631667 79.88038925 185.79873596 70.30078125 185.42578125 C60.15334238 184.11682168 52.57733112 178.49485525 45 172 C44.67 175.63 44.34 179.26 44 183 C29.48 183 14.96 183 0 183 C0 122.61 0 62.22 0 0 Z " fill="#000200" transform="translate(518,269)"/>
<path d="M0 0 C14.85 0 29.7 0 45 0 C45 19.14 45 38.28 45 58 C48.63 55.69 52.26 53.38 56 51 C61.70733808 47.95317869 66.41357543 47.48638139 72.75 47.5625 C74.07789551 47.57494751 74.07789551 47.57494751 75.43261719 47.58764648 C85.05563467 47.83572611 93.24208213 49.89815122 100.21566772 56.91392517 C107.81276837 65.79574648 106.5528436 77.44987092 106.4609375 88.40234375 C106.45854834 90.28983941 106.45764875 92.17733749 106.4581604 94.06483459 C106.45504463 98.0078129 106.43857587 101.95042448 106.41162109 105.89331055 C106.37766697 110.92085856 106.36999279 115.94800438 106.37151146 120.97565365 C106.37096479 124.86983504 106.35994979 128.76393039 106.34550858 132.65808296 C106.33919134 134.51063958 106.33521372 136.36320584 106.33372116 138.21577263 C106.28556158 166.74541434 106.28556158 166.74541434 98.125 176.1640625 C91.02459391 183.13767562 83.71363394 185.04912887 73.9375 185.375 C64.14302292 185.07090239 57.43880055 182.23689828 50 176 C49.26523438 175.484375 48.53046875 174.96875 47.7734375 174.4375 C47.18820312 173.963125 46.60296875 173.48875 46 173 C46 172.34 46 171.68 46 171 C45.34 171 44.68 171 44 171 C44.020625 172.2375 44.04125 173.475 44.0625 174.75 C44.11433318 177.8599909 43.782223 179.87110801 43 183 C28.81 183 14.62 183 0 183 C0 122.61 0 62.22 0 0 Z " fill="#010100" transform="translate(1216,269)"/>
<path d="M0 0 C15.84 0 31.68 0 48 0 C48 60.72 48 121.44 48 184 C32.16 184 16.32 184 0 184 C0 123.28 0 62.56 0 0 Z " fill="#030000" transform="translate(1556,268)"/>
<path d="M0 0 C15.84 0 31.68 0 48 0 C48 60.72 48 121.44 48 184 C32.16 184 16.32 184 0 184 C0 123.28 0 62.56 0 0 Z " fill="#030200" transform="translate(858,268)"/>
<path d="M0 0 C15.84 0 31.68 0 48 0 C48 60.72 48 121.44 48 184 C32.16 184 16.32 184 0 184 C0 123.28 0 62.56 0 0 Z " fill="#000301" transform="translate(160,268)"/>
<path d="M0 0 C10 0 10 0 13.0625 1.875 C15.73199192 4.80282985 16.1254396 6.32983523 16.14044189 10.18634033 C16.14900711 11.50268715 16.14900711 11.50268715 16.15774536 12.84562683 C16.15886322 13.81083755 16.15998108 14.77604828 16.16113281 15.77050781 C16.16609772 16.78528702 16.17106262 17.80006622 16.17617798 18.84559631 C16.19082556 22.21477936 16.19760646 25.5839153 16.203125 28.953125 C16.20887498 31.29001874 16.21463273 33.62691245 16.22039795 35.96380615 C16.23091579 40.86991598 16.23675311 45.77600938 16.24023438 50.68212891 C16.24571611 56.96815961 16.26973419 63.25397337 16.29820633 69.53993607 C16.31683383 74.3697981 16.32203841 79.19960794 16.32357025 84.02950287 C16.32659781 86.34674005 16.33462977 88.6639763 16.34775543 90.98117828 C16.36481541 94.22492433 16.36293538 97.46814132 16.35644531 100.71191406 C16.3656601 101.66902786 16.37487488 102.62614166 16.3843689 103.61225891 C16.3453281 109.84321871 15.59611699 114.40388301 11 119 C7.20274294 120.4063915 4.31819196 120 0 120 C0 80.4 0 40.8 0 0 Z " fill="#E3151C" transform="translate(1835,300)"/>
<path d="M0 0 C9.5 0 9.5 0 14 3 C15.80057971 5.87441087 16.25165897 8.06963686 16.26069641 11.43357849 C16.26778122 12.31533752 16.27486603 13.19709656 16.28216553 14.10557556 C16.27968811 15.06516678 16.27721069 16.024758 16.2746582 17.01342773 C16.2823246 18.53844406 16.2823246 18.53844406 16.29014587 20.0942688 C16.30405419 23.45743688 16.30308418 26.82040032 16.30078125 30.18359375 C16.30466741 32.52002539 16.30900192 34.85645633 16.31376648 37.19288635 C16.32123131 42.09126068 16.32093542 46.98956293 16.31567383 51.88793945 C16.30987805 58.16730477 16.32681178 64.44637524 16.3500185 70.7256918 C16.36474483 75.55123115 16.36562904 80.37669931 16.36250877 85.20225716 C16.36302251 87.51752367 16.36827002 89.83279411 16.37832069 92.14803886 C16.39064654 95.38461385 16.38391625 98.62061209 16.37231445 101.85717773 C16.38378006 103.29352821 16.38378006 103.29352821 16.39547729 104.75889587 C16.35708636 109.60039753 16.31972969 113.17205652 13 117 C9 119 9 119 0 119 C0 79.73 0 40.46 0 0 Z " fill="#EFBC13" transform="translate(1137,300)"/>
<path d="M0 0 C9.33333333 0 9.33333333 0 14 3 C16.07555941 6.11333911 16.25048837 6.78368139 16.25396729 10.31332397 C16.25960693 11.19370834 16.26524658 12.07409271 16.27105713 12.9811554 C16.26700867 13.94434189 16.26296021 14.90752838 16.25878906 15.89990234 C16.2622937 16.91643387 16.26579834 17.93296539 16.26940918 18.9803009 C16.27822916 22.34891541 16.27237545 25.71732076 16.265625 29.0859375 C16.26697178 31.42379802 16.26891242 33.76165826 16.27142334 36.09951782 C16.27437514 41.00387229 16.27007589 45.90815398 16.26074219 50.8125 C16.24936027 57.09968564 16.25589886 63.38670029 16.26788712 69.67387962 C16.27511491 74.50370572 16.27281332 79.33349131 16.26763153 84.16331863 C16.26629693 86.4813705 16.26793612 88.79942603 16.27259064 91.1174736 C16.27766947 94.35885095 16.26992571 97.59995183 16.25878906 100.84130859 C16.26283752 101.80044662 16.26688599 102.75958466 16.27105713 103.74778748 C16.21817286 112.05623685 16.21817286 112.05623685 14 116 C9.32484646 120.10846826 6.95354344 119 0 119 C0 79.73 0 40.46 0 0 Z " fill="#33A749" transform="translate(440,300)"/>
<path d="M0 0 C4.53502253 0.71605619 5.7284054 2.00615888 8.5625 5.5625 C9.19741821 8.86352539 9.19741821 8.86352539 9.20947266 12.66015625 C9.22261505 13.70258987 9.22261505 13.70258987 9.23602295 14.76608276 C9.25794945 17.05303212 9.243491 19.33803256 9.2265625 21.625 C9.22993265 23.22013722 9.23478692 24.81527194 9.24105835 26.41040039 C9.24842043 29.74943552 9.23774651 33.08780072 9.21435547 36.42675781 C9.18586698 40.701048 9.20227468 44.97376847 9.23221779 49.2480011 C9.25030939 52.54068776 9.24452444 55.83300391 9.23157883 59.1257019 C9.22824991 60.70132637 9.23231386 62.27698477 9.24397659 63.85256958 C9.25671745 66.05756354 9.23726957 68.260037 9.20947266 70.46484375 C9.20549469 71.71773193 9.20151672 72.97062012 9.19741821 74.26147461 C8.38850006 78.46714916 6.89927964 79.95567294 3.5625 82.5625 C0 83.1875 0 83.1875 -3.4375 82.5625 C-6.29570048 79.82709472 -7.3476267 78.15448718 -7.94543457 74.21678162 C-7.94861694 72.94311234 -7.95179932 71.66944305 -7.95507812 70.35717773 C-7.9620874 69.65086212 -7.96909668 68.94454651 -7.97631836 68.21682739 C-7.99385797 65.89284418 -7.98229248 63.57008833 -7.96875 61.24609375 C-7.9714458 59.62614204 -7.97532896 58.00619191 -7.98034668 56.38624573 C-7.98623596 52.99602813 -7.97769643 49.60623286 -7.95898438 46.21606445 C-7.93617644 41.87237471 -7.94933244 37.5296726 -7.97327423 33.18601894 C-7.98773236 29.84280461 -7.98312658 26.49982426 -7.97276306 23.15660286 C-7.97009674 21.55503281 -7.97336226 19.95344144 -7.98268127 18.35189629 C-7.99284975 16.11350125 -7.97734539 13.87670384 -7.95507812 11.63842773 C-7.95030457 9.7291172 -7.95030457 9.7291172 -7.94543457 7.78123474 C-7.13376525 2.6377608 -5.06228966 0.82837467 0 0 Z " fill="#F5C114" transform="translate(1268.4375,343.4375)"/>
<path d="M0 0 C0.66 0.0309375 1.32 0.061875 2 0.09375 C2.99 0.10921875 2.99 0.10921875 4 0.125 C6.73827226 0.76678256 8.00014499 1.59048901 10 3.59375 C10.5146637 6.73019409 10.5146637 6.73019409 10.53344727 10.64794922 C10.54206284 11.36212006 10.55067841 12.07629089 10.55955505 12.81210327 C10.58226998 15.17458275 10.57546558 17.53588099 10.56640625 19.8984375 C10.57164038 21.54127353 10.57791609 23.18410655 10.58518982 24.82693481 C10.59560488 28.27197395 10.59101843 31.71660034 10.57641602 35.16162109 C10.55924804 39.57267227 10.58269173 43.98241844 10.61790562 48.3933239 C10.63989023 51.78720707 10.63843531 55.18077869 10.6301403 58.57471085 C10.62932093 60.2005875 10.63618175 61.82648707 10.65091133 63.45229721 C10.66837337 65.7292613 10.65380417 68.00389068 10.63110352 70.28076172 C10.62966087 72.22243729 10.62966087 72.22243729 10.62818909 74.20333862 C9.83810102 78.46753811 8.37281026 79.95079446 5 82.59375 C1.9375 83.15625 1.9375 83.15625 -1 82.59375 C-3.30275556 80.7266509 -4.67823871 79.23727259 -6 76.59375 C-6.11255715 74.37405763 -6.15938336 72.1509413 -6.17700195 69.9284668 C-6.18357315 69.2437027 -6.19014435 68.5589386 -6.19691467 67.85342407 C-6.21665361 65.58327122 -6.22831177 63.31318454 -6.23828125 61.04296875 C-6.24235678 60.26773172 -6.2464323 59.4924947 -6.25063133 58.69376564 C-6.27149505 54.59019868 -6.28579519 50.48666518 -6.29516602 46.38305664 C-6.30622862 42.1459787 -6.34062537 37.90942622 -6.38033772 33.67253399 C-6.40649325 30.41340666 -6.41485689 27.15440471 -6.41844749 23.89518166 C-6.42331659 22.33347845 -6.43493989 20.77178096 -6.45348549 19.21018028 C-6.47785488 17.02210342 -6.47691682 14.83538804 -6.4699707 12.6472168 C-6.47583694 11.40304489 -6.48170319 10.15887299 -6.48774719 8.8769989 C-5.87029296 4.72063275 -4.26378229 1.26581037 0 0 Z " fill="#31A546" transform="translate(569,343.40625)"/>
<path d="M0 0 C4.53233684 0.71563213 5.72667557 2.01222136 8.5625 5.5625 C9.19741821 8.8188324 9.19741821 8.8188324 9.20947266 12.55249023 C9.22261505 13.57788406 9.22261505 13.57788406 9.23602295 14.62399292 C9.25794927 16.87368091 9.24348964 19.12138735 9.2265625 21.37109375 C9.22993304 22.94141515 9.23478765 24.51173401 9.24105835 26.08204651 C9.24842073 29.36981089 9.23774708 32.65689495 9.21435547 35.94458008 C9.18589039 40.14927916 9.20225949 44.35238086 9.23221779 48.55702114 C9.25032873 51.79913763 9.24451522 55.04087855 9.23157883 58.28300667 C9.22825402 59.83268487 9.2322993 61.38239767 9.24397659 62.93203545 C9.25674691 65.10330686 9.23722811 67.27203243 9.20947266 69.44311523 C9.20549469 70.67601791 9.20151672 71.90892059 9.19741821 73.17918396 C8.3451986 77.72044332 6.86707475 79.36167847 3.5625 82.5625 C0 83.25 0 83.25 -3.4375 82.5625 C-6.2932234 79.82435417 -7.34754555 78.1550217 -7.94543457 74.21678162 C-7.94861694 72.94311234 -7.95179932 71.66944305 -7.95507812 70.35717773 C-7.9620874 69.65086212 -7.96909668 68.94454651 -7.97631836 68.21682739 C-7.99385797 65.89284418 -7.98229248 63.57008833 -7.96875 61.24609375 C-7.9714458 59.62614204 -7.97532896 58.00619191 -7.98034668 56.38624573 C-7.98623596 52.99602813 -7.97769643 49.60623286 -7.95898438 46.21606445 C-7.93617644 41.87237471 -7.94933244 37.5296726 -7.97327423 33.18601894 C-7.98773236 29.84280461 -7.98312658 26.49982426 -7.97276306 23.15660286 C-7.97009674 21.55503281 -7.97336226 19.95344144 -7.98268127 18.35189629 C-7.99284975 16.11350125 -7.97734539 13.87670384 -7.95507812 11.63842773 C-7.95030457 9.7291172 -7.95030457 9.7291172 -7.94543457 7.78123474 C-7.13376525 2.6377608 -5.06228966 0.82837467 0 0 Z " fill="#E0131A" transform="translate(1966.4375,343.4375)"/>
<path d="M0 0 C21.12 0 42.24 0 64 0 C63.67 0.99 63.34 1.98 63 3 C63 2.34 63 1.68 63 1 C42.54 1 22.08 1 1 1 C1 61.06 1 121.12 1 183 C14.53 183 28.06 183 42 183 C42 143.73 42 104.46 42 64 C42.99 64.33 43.98 64.66 45 65 C45 67.31 45 69.62 45 72 C44.67 72 44.34 72 44 72 C43.67 108.96 43.34 145.92 43 184 C28.81 184 14.62 184 0 184 C0 123.28 0 62.56 0 0 Z " fill="#3E3104" transform="translate(923,268)"/>
<path d="M0 0 C0.66 0 1.32 0 2 0 C3.35439668 2.70879335 3.06501451 5.00933268 3 8 C2.67 8 2.34 8 2 8 C1.67 44.96 1.34 81.92 1 120 C-13.19 120 -27.38 120 -42 120 C-42 119.67 -42 119.34 -42 119 C-28.14 119 -14.28 119 0 119 C0 79.73 0 40.46 0 0 Z " fill="#092F13" transform="translate(267,332)"/>
<path d="M0 0 C0.33 0 0.66 0 1 0 C1 38.94 1 77.88 1 118 C0.67 118 0.34 118 0 118 C-0.00586624 116.94177536 -0.01173248 115.88355072 -0.01777649 114.79325867 C-0.07493473 104.83121298 -0.14765995 94.86938704 -0.23571491 84.90756512 C-0.28048467 79.78580478 -0.31972612 74.66412521 -0.34643555 69.54223633 C-0.37240275 64.60135802 -0.41275813 59.66078941 -0.46318626 54.72010231 C-0.47989965 52.8330552 -0.49138599 50.94595446 -0.49761391 49.05884361 C-0.50720656 46.42000056 -0.53520689 43.78195789 -0.56762695 41.14331055 C-0.56619186 40.3592836 -0.56475677 39.57525665 -0.5632782 38.76747131 C-0.54591179 34.65415492 -0.54591179 34.65415492 -2.53166199 31.21321106 C-3.01621353 30.81285141 -3.50076508 30.41249176 -4 30 C-3.94263993 27.25275453 -3.72611562 24.82060224 -3.3125 22.125 C-3.21018066 21.37355713 -3.10786133 20.62211426 -3.00244141 19.84790039 C-2.68626097 17.56224996 -2.34625081 15.28126975 -2 13 C-1.8032843 11.66277529 -1.60666326 10.32553665 -1.41015625 8.98828125 C-0.95810564 5.98890899 -0.48936807 2.9934749 0 0 Z " fill="#CF1018" transform="translate(1728,334)"/>
<path d="M0 0 C0.33 0 0.66 0 1 0 C2.72330907 7.09326321 3.2494783 13.70968976 3 21 C2.67 21 2.34 21 2 21 C1.67 50.37 1.34 79.74 1 110 C0.67 110 0.34 110 0 110 C0 73.7 0 37.4 0 0 Z " fill="#3DB250" transform="translate(269,342)"/>
<path d="M0 0 C2.77300283 4.15950425 2.33074562 7.55132168 2.3125 12.4375 C2.32861328 13.29666016 2.34472656 14.15582031 2.36132812 15.04101562 C2.36624115 21.37390652 2.36624115 21.37390652 0.48046875 24.59765625 C-0.00808594 25.06042969 -0.49664063 25.52320313 -1 26 C-2.09519281 16.95725933 -1.76931972 8.93433347 0 0 Z " fill="#E5B811" transform="translate(1027,355)"/>
<path d="M0 0 C0.33 0.66 0.66 1.32 1 2 C1.66 2 2.32 2 3 2 C3 3.32 3 4.64 3 6 C3.66 6 4.32 6 5 6 C4.67 10.29 4.34 14.58 4 19 C3.34 19 2.68 19 2 19 C1.34 12.73 0.68 6.46 0 0 Z " fill="#C3111A" transform="translate(1693,331)"/>
<path d="M0 0 C0.99 0.33 1.98 0.66 3 1 C3 3.31 3 5.62 3 8 C2.67 8 2.34 8 2 8 C1.67 17.24 1.34 26.48 1 36 C0.67 36 0.34 36 0 36 C0 24.12 0 12.24 0 0 Z " fill="#2B1E00" transform="translate(965,332)"/>
<path d="M0 0 C0.33 0 0.66 0 1 0 C1.12036664 5.77759884 0.8320582 11.27959989 0 17 C-0.66 17 -1.32 17 -2 17 C-2.33 13.04 -2.66 9.08 -3 5 C-2.34 5 -1.68 5 -1 5 C-0.67 3.35 -0.34 1.7 0 0 Z " fill="#328A41" transform="translate(302,333)"/>
<path d="M0 0 C5.26053037 -0.31563182 8.44573816 0.33409063 13 3 C12.34 3.66 11.68 4.32 11 5 C7.37 4.01 3.74 3.02 0 2 C0 1.34 0 0.68 0 0 Z " fill="#E8BC0E" transform="translate(1138,300)"/>
<path d="M0 0 C1.79275866 3.11910856 2.34290718 5.67682428 2.625 9.25 C2.69976563 10.14203125 2.77453125 11.0340625 2.8515625 11.953125 C2.92503906 12.96632813 2.92503906 12.96632813 3 14 C2.34 14 1.68 14 1 14 C-0.38226016 11.23547967 -0.09525387 8.9538637 -0.0625 5.875 C-0.05347656 4.77929688 -0.04445313 3.68359375 -0.03515625 2.5546875 C-0.02355469 1.71164062 -0.01195312 0.86859375 0 0 Z " fill="#ECC117" transform="translate(967,344)"/>
<path d="M0 0 C0.33 0 0.66 0 1 0 C2.33257403 11.52164009 2.33257403 11.52164009 1 17 C0.67 17 0.34 17 0 17 C-0.77313045 11.0885256 -1.14819277 5.8685408 0 0 Z " fill="#E4B109" transform="translate(998,332)"/>
<path d="M0 0 C0.33 0 0.66 0 1 0 C1 2.64 1 5.28 1 8 C0.34 8 -0.32 8 -1 8 C-0.67 9.65 -0.34 11.3 0 13 C-0.99 13.495 -0.99 13.495 -2 14 C-2.1799928 8.78020872 -1.97094808 4.92737019 0 0 Z " fill="#F8D041" transform="translate(799,217)"/>
<path d="M0 0 C0.66 0.33 1.32 0.66 2 1 C0.02 3.31 -1.96 5.62 -4 8 C-4.99 7.67 -5.98 7.34 -7 7 C-4.69 4.69 -2.38 2.38 0 0 Z " fill="#E9272E" transform="translate(1510,200)"/>
<path d="M0 0 C0 3 0 3 -1.3125 4.38671875 C-2.875 5.59114583 -4.4375 6.79557292 -6 8 C-6.66 7.67 -7.32 7.34 -8 7 C-5.36 4.69 -2.72 2.38 0 0 Z " fill="#F9C82B" transform="translate(813,200)"/>
<path d="M0 0 C0.99 0.33 1.98 0.66 3 1 C3 3.31 3 5.62 3 8 C2.01 7.67 1.02 7.34 0 7 C0 4.69 0 2.38 0 0 Z " fill="#372902" transform="translate(965,332)"/>
<path d="M0 0 C0.33 0.99 0.66 1.98 1 3 C-0.32 4.32 -1.64 5.64 -3 7 C-3.99 6.67 -4.98 6.34 -6 6 C-4.02 4.02 -2.04 2.04 0 0 Z " fill="#46B65A" transform="translate(113,201)"/>
<path d="M0 0 C0 0.66 0 1.32 0 2 C-5.41538462 4.21538462 -5.41538462 4.21538462 -8.375 3.125 C-8.91125 2.75375 -9.4475 2.3825 -10 2 C-3.375 0 -3.375 0 0 0 Z " fill="#D6AB15" transform="translate(1306,451)"/>
<path d="M0 0 C3.3 0.33 6.6 0.66 10 1 C10.33 1.99 10.66 2.98 11 4 C7.37 3.01 3.74 2.02 0 1 C0 0.67 0 0.34 0 0 Z " fill="#277C38" transform="translate(473,271)"/>
</svg>
